<svg width="320" height="269" viewBox="0 0 320 269" fill="none" xmlns="http://www.w3.org/2000/svg">
<g filter="url(#filter0_b_690_3312)">
<path d="M0 15C0 6.71574 6.71573 0 15 0H103.452H305C313.284 0 320 6.71573 320 15V224.603V254C320 262.284 313.284 269 305 269H234.375H15C6.71572 269 0 262.284 0 254V165.49V15Z" fill="#313131"/>
<path d="M0 15C0 6.71574 6.71573 0 15 0H103.452H305C313.284 0 320 6.71573 320 15V224.603V254C320 262.284 313.284 269 305 269H234.375H15C6.71572 269 0 262.284 0 254V165.49V15Z" fill="url(#paint0_diamond_690_3312)"/>
<path d="M0 15C0 6.71574 6.71573 0 15 0H103.452H305C313.284 0 320 6.71573 320 15V224.603V254C320 262.284 313.284 269 305 269H234.375H15C6.71572 269 0 262.284 0 254V165.49V15Z" fill="url(#paint1_diamond_690_3312)" fill-opacity="0.2"/>
</g>
<defs>
<filter id="filter0_b_690_3312" x="-46" y="-46" width="412" height="361" filterUnits="userSpaceOnUse" color-interpolation-filters="sRGB">
<feFlood flood-opacity="0" result="BackgroundImageFix"/>
<feGaussianBlur in="BackgroundImageFix" stdDeviation="23"/>
<feComposite in2="SourceAlpha" operator="in" result="effect1_backgroundBlur_690_3312"/>
<feBlend mode="normal" in="SourceGraphic" in2="effect1_backgroundBlur_690_3312" result="shape"/>
</filter>
<radialGradient id="paint0_diamond_690_3312" cx="0" cy="0" r="1" gradientUnits="userSpaceOnUse" gradientTransform="translate(367.715 -43.2003) rotate(139.266) scale(356.945 354.442)">
<stop stop-color="#53EB6D" stop-opacity="0.42"/>
<stop offset="1" stop-color="#7FE290" stop-opacity="0"/>
</radialGradient>
<radialGradient id="paint1_diamond_690_3312" cx="0" cy="0" r="1" gradientUnits="userSpaceOnUse" gradientTransform="translate(-9.98677 257.866) rotate(26.2514) scale(184.264 176.705)">
<stop stop-color="#53EB6D"/>
<stop offset="1" stop-color="#7FE290" stop-opacity="0"/>
</radialGradient>
</defs>
</svg>
