<svg width="25" height="24" viewBox="0 0 25 24" fill="none" xmlns="http://www.w3.org/2000/svg">
<path d="M19.59 21.8743C21.3157 21.4306 22.5911 19.8642 22.5911 18V6C22.5911 3.79086 20.8002 2 18.5911 2H6.59106C4.38193 2 2.59106 3.79086 2.59106 6V18C2.59106 19.8642 3.86638 21.4306 5.59217 21.8743M19.59 21.8743C19.2707 21.9563 18.936 22 18.5911 22H6.59106C6.24616 22 5.91146 21.9563 5.59217 21.8743M19.59 21.8743C19.5229 18.0663 16.4151 15 12.5911 15C8.76707 15 5.65924 18.0663 5.59217 21.8743M15.5911 9C15.5911 7.34315 14.2479 6 12.5911 6C10.9342 6 9.59106 7.34315 9.59106 9C9.59106 10.6569 10.9342 12 12.5911 12C14.2479 12 15.5911 10.6569 15.5911 9Z" stroke="#202020" stroke-width="1.5"/>
</svg>
