<svg width="25" height="24" viewBox="0 0 25 24" fill="none" xmlns="http://www.w3.org/2000/svg">
<path d="M3.59106 7H6.59106M6.59106 7C6.59106 8.65685 7.93421 10 9.59106 10C11.2479 10 12.5911 8.65685 12.5911 7C12.5911 5.34315 11.2479 4 9.59106 4C7.93421 4 6.59106 5.34315 6.59106 7ZM3.59106 17H9.59106M18.5911 17H21.5911M18.5911 17C18.5911 18.6569 17.2479 20 15.5911 20C13.9342 20 12.5911 18.6569 12.5911 17C12.5911 15.3431 13.9342 14 15.5911 14C17.2479 14 18.5911 15.3431 18.5911 17ZM15.5911 7H21.5911" stroke="#202020" stroke-width="1.5" stroke-linecap="round"/>
</svg>
