<svg width="15" height="24" viewBox="0 0 15 24" fill="none" xmlns="http://www.w3.org/2000/svg">
<g clip-path="url(#clip0_697_2187)">
<path d="M13.4972 23.7223C10.9876 20.5309 7.47061 21.6988 5.49548 20.1944C4.9632 19.7897 3.62592 18.2412 3.38617 17.731C3.31359 17.566 3.24761 17.2559 3.47195 17.3482C5.19855 18.0345 6.81957 19.5081 8.7947 18.9143C6.40387 17.6848 4.95221 16.8863 3.7205 15.769C-2.46445 10.1493 4.06142 5.99671 3.43896 3.83021C3.42137 3.77303 3.39057 3.68285 3.36418 3.54648C3.18382 2.57651 4.40014 4.23052 4.59149 4.60663C4.43533 3.23196 5.85179 0.471603 6.34448 1.3558C6.42146 2.1696 6.29829 2.97462 6.60182 3.81702C7.06811 5.54801 8.97506 5.93512 10.055 7.38458C12.8681 11.0269 9.31158 15.8174 11.0756 18.4216C10.6467 17.0799 12.1907 16.1187 12.58 14.8562C12.8506 14.3767 12.8462 13.2418 13.1893 13.0658C13.3234 12.9977 13.539 13.0307 13.704 13.464C15.215 17.4428 9.70089 18.6745 13.4972 23.7223Z" fill="#202020"/>
<path d="M5.81654 14.5702C6.74472 14.6252 7.56733 14.2886 8.22497 13.631C8.5483 13.3077 8.85623 12.9118 9.06078 12.5026C9.32472 11.9792 9.45448 11.4249 9.3929 10.8398C9.32911 10.2504 9.14876 9.57514 8.81444 9.08685C8.104 8.0509 7.31439 7.23709 6.07388 7.03693C5.69117 6.97535 5.1237 7.06333 4.56063 7.38005C3.46309 7.99591 2.68667 9.15504 2.53491 10.4043C2.35895 11.8494 3.06279 13.389 4.31869 14.1237C4.77398 14.3898 5.29086 14.5372 5.81654 14.5702Z" fill="#FAF2FF" stroke="#FAF2FF" stroke-width="0.576359" stroke-miterlimit="10" stroke-linecap="round" stroke-linejoin="round"/>
<path d="M6.9207 10.1294C7.95885 10.4549 8.53732 11.559 8.21179 12.595C8.12161 12.8853 8.00724 13.1185 7.7697 13.2746C7.56075 13.411 7.17144 12.5334 6.79313 12.716C6.37302 12.9161 6.87231 13.7541 6.68975 13.8597C6.41262 14.0181 6.0739 13.9895 5.74837 13.8883C4.71022 13.5628 4.13175 12.4586 4.45727 11.4227C4.7828 10.3867 5.88254 9.80384 6.9207 10.1294Z" fill="#202020" stroke="#FAF2FF" stroke-width="0.576359" stroke-miterlimit="10" stroke-linecap="round" stroke-linejoin="round"/>
</g>
<defs>
<clipPath id="clip0_697_2187">
<rect width="13.3971" height="23" fill="white" transform="translate(0.80835 0.953125)"/>
</clipPath>
</defs>
</svg>
