<svg width="44" height="44" viewBox="0 0 44 44" fill="none" xmlns="http://www.w3.org/2000/svg">
<path d="M21.5641 25.0552C16.5397 25.0552 12.27 28.2036 10.5449 32.6027H32.5834C30.8583 28.2036 26.5886 25.0552 21.5641 25.0552ZM12.5503 21.8206L14.8361 19.5348L17.1219 21.8206L19.4077 19.5348L17.1219 17.249L19.4077 14.9632L17.1219 12.6774L14.8361 14.9632L12.5503 12.6774L10.2645 14.9632L12.5503 17.249L10.2645 19.5348L12.5503 21.8206ZM21.5426 0.25647C9.63916 0.25647 0 9.89563 0 21.8206C0 33.7456 9.63916 43.3847 21.5426 43.3847C33.446 43.3847 43.1282 33.7456 43.1282 21.8206C43.1282 9.89563 33.4675 0.25647 21.5426 0.25647ZM21.5641 39.0719C12.0328 39.0719 4.31282 31.3519 4.31282 21.8206C4.31282 12.2893 12.0328 4.56929 21.5641 4.56929C31.0955 4.56929 38.8154 12.2893 38.8154 21.8206C38.8154 31.3519 31.0955 39.0719 21.5641 39.0719ZM30.5779 12.6774L28.2921 14.9632L26.0063 12.6774L23.7205 14.9632L26.0063 17.249L23.7205 19.5348L26.0063 21.8206L28.2921 19.5348L30.5779 21.8206L32.8637 19.5348L30.5779 17.249L32.8637 14.9632L30.5779 12.6774Z" fill="#202020"/>
</svg>
