<svg width="31" height="20" viewBox="0 0 31 20" fill="none" xmlns="http://www.w3.org/2000/svg">
<path d="M28.8179 11.25C29.5082 11.25 30.0679 10.6904 30.0679 10C30.0679 9.30964 29.5082 8.75 28.8179 8.75V11.25ZM0.933985 9.11612C0.445831 9.60427 0.445831 10.3957 0.933985 10.8839L8.88894 18.8388C9.37709 19.327 10.1685 19.327 10.6567 18.8388C11.1449 18.3507 11.1449 17.5592 10.6567 17.0711L3.58564 10L10.6567 2.92893C11.1449 2.44078 11.1449 1.64932 10.6567 1.16117C10.1685 0.67301 9.37709 0.67301 8.88894 1.16117L0.933985 9.11612ZM28.8179 8.75L1.81787 8.75V11.25L28.8179 11.25V8.75Z" fill="#FAF2FF"/>
</svg>
