<svg width="20" height="12" viewBox="0 0 20 12" fill="none" xmlns="http://www.w3.org/2000/svg">
<path d="M0 2.32427C0.0999905 1.96931 0.212943 1.62322 0.459216 1.33038C0.879546 0.831669 1.41468 0.544153 2.08499 0.522856C2.54605 0.506883 3.00897 0.515757 3.47004 0.513982C6.04943 0.513982 8.62511 0.515757 11.2026 0.512207C12.1674 0.512207 12.8932 0.900886 13.295 1.74568C13.4302 2.03143 13.4913 2.37041 13.495 2.68632C13.5117 4.98822 13.5061 7.29012 13.5024 9.59202C13.5006 10.6942 12.7821 11.5407 11.6896 11.736C11.5248 11.7661 11.3526 11.7679 11.1841 11.7679C8.22885 11.7697 5.27543 11.7697 2.32015 11.7697C1.10545 11.7697 0.288861 11.1379 0.0314785 10.0055C0.0277751 9.98958 0.0111101 9.97538 0 9.96118C0 7.41436 0 4.86931 0 2.32427Z" fill="#202020"/>
<path d="M19.9982 9.5496C19.9 9.91698 19.7167 10.2311 19.3667 10.4334C18.9779 10.6606 18.5631 10.6997 18.1576 10.5044C17.7113 10.2897 17.2818 10.0412 16.8466 9.80339C16.1522 9.42359 15.4616 9.03846 14.7653 8.6622C14.6431 8.59653 14.5913 8.52732 14.5931 8.38888C14.5987 6.88564 14.5987 5.38239 14.5931 3.87915C14.5931 3.74249 14.6394 3.66972 14.7616 3.60228C15.806 3.0308 16.8614 2.47706 17.8836 1.87009C18.7798 1.33765 19.8334 1.81152 19.9797 2.68649C19.9834 2.70246 19.9926 2.71843 20 2.73441C19.9982 5.00614 19.9982 7.27787 19.9982 9.5496Z" />
</svg>
