<svg width="58" height="52" viewBox="0 0 58 52" fill="none" xmlns="http://www.w3.org/2000/svg">
<g filter="url(#filter0_d_851_1540)">
<path d="M34.9766 14.6117C33.573 18.2899 35.7507 21.9474 39.0457 22.843C38.9296 25.9491 37.2137 30.0984 32.4867 31.5531C28.0023 32.9302 23.2004 31.0406 21.1672 27.0389C19.0695 22.9103 19.7532 18.0725 23.5926 15.0388C27.1998 12.1837 31.9113 12.2795 34.9766 14.6117ZM29.4962 26.7774C30.905 26.7981 32.0945 26.0708 32.9357 25.2684C33.186 25.0302 33.1782 24.7093 32.9537 24.4556C32.7318 24.2019 32.4222 24.1734 32.1461 24.3831C32.0455 24.4608 31.9526 24.5488 31.8571 24.629C30.4922 25.7731 29.1143 25.8974 27.5739 25.0018C27.2463 24.8128 26.9495 24.5721 26.6322 24.365C26.3328 24.1683 26 24.22 25.8013 24.4841C25.613 24.7326 25.6362 25.0898 25.8968 25.2994C26.9521 26.1458 28.1055 26.7541 29.4962 26.7774ZM33.4982 19.9569C33.5033 19.2088 32.9873 18.6756 32.2468 18.6678C31.5062 18.6575 30.9747 19.1829 30.9644 19.9258C30.9566 20.679 31.4985 21.2459 32.2287 21.2407C32.9563 21.2381 33.493 20.6946 33.4982 19.9569ZM25.293 19.9543C25.2956 20.6946 25.8245 21.22 26.5702 21.22C27.3185 21.22 27.8707 20.6661 27.8603 19.9284C27.85 19.2036 27.2979 18.6756 26.5573 18.6782C25.8168 18.6833 25.2904 19.214 25.293 19.9543Z" fill="#FAF2FF"/>
<path d="M35.792 16.9181C35.7843 14.1174 37.8743 12.0026 40.6506 12C43.3908 12 45.4886 14.1225 45.4989 16.9077C45.5066 19.6981 43.4089 21.8335 40.648 21.8413C37.8794 21.8465 35.7998 19.7369 35.792 16.9181ZM41.2441 17.5134C41.6621 17.5134 42.0414 17.5419 42.4155 17.5005C42.5935 17.4798 42.818 17.371 42.9186 17.2287C43.1896 16.8456 42.9109 16.346 42.4387 16.3305C42.0439 16.3175 41.6517 16.3279 41.2518 16.3279C41.2518 16.0457 41.257 15.8128 41.2492 15.5798C41.2441 15.3857 41.2466 15.1864 41.2054 15C41.1357 14.6816 40.9215 14.5186 40.63 14.5237C40.3384 14.5289 40.1165 14.6972 40.0778 15.0207C40.0391 15.3572 40.0468 15.6989 40.0597 16.038C40.0701 16.2684 39.9978 16.346 39.7656 16.3331C39.4379 16.3149 39.105 16.3098 38.7774 16.3434C38.4393 16.3771 38.2639 16.5971 38.2613 16.9077C38.2587 17.2183 38.429 17.4409 38.7593 17.4927C38.9967 17.5289 39.2418 17.516 39.4843 17.5212C39.665 17.5238 39.843 17.5212 40.0391 17.5212C40.0391 17.7127 40.0339 17.8654 40.0391 18.0207C40.0468 18.2925 40.0339 18.5695 40.0804 18.8335C40.1475 19.2192 40.4906 19.3978 40.8519 19.2658C41.1434 19.1597 41.226 18.906 41.2363 18.6342C41.257 18.2744 41.2441 17.9146 41.2441 17.5134Z" fill="#FAF2FF"/>
</g>
<defs>
<filter id="filter0_d_851_1540" x="0" y="0" width="57.4988" height="52" filterUnits="userSpaceOnUse" color-interpolation-filters="sRGB">
<feFlood flood-opacity="0" result="BackgroundImageFix"/>
<feColorMatrix in="SourceAlpha" type="matrix" values="0 0 0 0 0 0 0 0 0 0 0 0 0 0 0 0 0 0 127 0" result="hardAlpha"/>
<feOffset dx="-4" dy="4"/>
<feGaussianBlur stdDeviation="8"/>
<feComposite in2="hardAlpha" operator="out"/>
<feColorMatrix type="matrix" values="0 0 0 0 0 0 0 0 0 0 0 0 0 0 0 0 0 0 0.4 0"/>
<feBlend mode="normal" in2="BackgroundImageFix" result="effect1_dropShadow_851_1540"/>
<feBlend mode="normal" in="SourceGraphic" in2="effect1_dropShadow_851_1540" result="shape"/>
</filter>
</defs>
</svg>
