<svg width="44" height="44" viewBox="0 0 44 44" fill="none" xmlns="http://www.w3.org/2000/svg">
<path d="M21.5641 26.3899C16.5397 26.3899 12.2484 29.5167 10.5233 33.9373H14.1245C15.6124 31.3712 18.3726 29.6245 21.5641 29.6245C24.7556 29.6245 27.4943 31.3712 29.0037 33.9373H32.605C30.8798 29.5167 26.5886 26.3899 21.5641 26.3899ZM21.5426 0.512939C9.63916 0.512939 0 10.1737 0 22.0771C0 33.9805 9.63916 43.6412 21.5426 43.6412C33.4675 43.6412 43.1282 33.9805 43.1282 22.0771C43.1282 10.1737 33.4675 0.512939 21.5426 0.512939ZM21.5641 39.3284C12.0328 39.3284 4.31282 31.6084 4.31282 22.0771C4.31282 12.5457 12.0328 4.82576 21.5641 4.82576C31.0955 4.82576 38.8154 12.5457 38.8154 22.0771C38.8154 31.6084 31.0955 39.3284 21.5641 39.3284Z" fill="#F3373C"/>
<line x1="11.4227" y1="15.9097" x2="17.8919" y2="19.4034" stroke="#F3373C" stroke-width="2.69552"/>
<line y1="-1.34776" x2="7.35235" y2="-1.34776" transform="matrix(-0.879887 0.475182 0.475182 0.879887 32.3464 17.0956)" stroke="#F3373C" stroke-width="2.69552"/>
</svg>
