<svg width="44" height="44" viewBox="0 0 44 44" fill="none" xmlns="http://www.w3.org/2000/svg">
<path d="M29.1121 18.9155C30.8985 18.9155 32.3467 17.4673 32.3467 15.6809C32.3467 13.8945 30.8985 12.4463 29.1121 12.4463C27.3256 12.4463 25.8774 13.8945 25.8774 15.6809C25.8774 17.4673 27.3256 18.9155 29.1121 18.9155Z" fill="#FFCA3A"/>
<path d="M14.0171 18.9155C15.8035 18.9155 17.2517 17.4673 17.2517 15.6809C17.2517 13.8945 15.8035 12.4463 14.0171 12.4463C12.2307 12.4463 10.7825 13.8945 10.7825 15.6809C10.7825 17.4673 12.2307 18.9155 14.0171 18.9155Z" fill="#FFCA3A"/>
<path d="M21.5426 0.128235C9.63916 0.128235 0 9.78896 0 21.6924C0 33.5958 9.63916 43.2565 21.5426 43.2565C33.4675 43.2565 43.1282 33.5958 43.1282 21.6924C43.1282 9.78896 33.4675 0.128235 21.5426 0.128235ZM21.5641 38.9437C12.0328 38.9437 4.31282 31.2237 4.31282 21.6924C4.31282 12.161 12.0328 4.44106 21.5641 4.44106C31.0955 4.44106 38.8154 12.161 38.8154 21.6924C38.8154 31.2237 31.0955 38.9437 21.5641 38.9437Z" fill="#FFCA3A"/>
<circle cx="21.5645" cy="29.5208" r="4.19562" fill="#FFCA3A"/>
</svg>
