<svg width="25" height="25" viewBox="0 0 25 25" fill="none" xmlns="http://www.w3.org/2000/svg">
<path fill-rule="evenodd" clip-rule="evenodd" d="M21.8083 11.1035V18.92C21.8083 21.1474 20.0175 22.9531 17.8083 22.9531H7.80835C5.59921 22.9531 3.80835 21.1474 3.80835 18.92V11.1035C3.80835 9.8925 4.34799 8.74562 5.27821 7.97965L10.2782 3.86247C11.7507 2.65001 13.866 2.65001 15.3385 3.86247L20.3385 7.97965C21.2687 8.74562 21.8083 9.8925 21.8083 11.1035ZM16.0583 18.2031V20.4531C16.0583 21.0054 15.6106 21.4531 15.0583 21.4531H10.5583C10.0061 21.4531 9.55835 21.0054 9.55835 20.4531V18.2031C9.55835 16.4082 11.0134 14.9531 12.8083 14.9531C14.6033 14.9531 16.0583 16.4082 16.0583 18.2031Z" fill="#202020"/>
</svg>
