<svg width="44" height="44" viewBox="0 0 44 44" fill="none" xmlns="http://www.w3.org/2000/svg">
<path d="M21.5426 0.384766C9.63916 0.384766 0 10.0239 0 21.9489C0 33.8739 9.63916 43.513 21.5426 43.513C33.446 43.513 43.1282 33.8739 43.1282 21.9489C43.1282 10.0239 33.4675 0.384766 21.5426 0.384766ZM21.5641 39.2002C12.0328 39.2002 4.31282 31.4802 4.31282 21.9489C4.31282 12.4175 12.0328 4.69759 21.5641 4.69759C31.0955 4.69759 38.8154 12.4175 38.8154 21.9489C38.8154 31.4802 31.0955 39.2002 21.5641 39.2002ZM23.7205 17.5067L26.0063 19.7925L28.2921 17.5067L30.5779 19.7925L32.8637 17.5067L28.2921 12.9351L23.7205 17.5067ZM14.8361 17.5067L17.1219 19.7925L19.4077 17.5067L14.8361 12.9351L10.2645 17.5067L12.5503 19.7925L14.8361 17.5067ZM21.5641 33.8092C26.5886 33.8092 30.8583 30.6608 32.5834 26.2617H10.5449C12.27 30.6608 16.5397 33.8092 21.5641 33.8092Z" fill="#23C43D"/>
</svg>
