<svg width="24" height="24" viewBox="0 0 24 24" fill="none" xmlns="http://www.w3.org/2000/svg">
<path fill-rule="evenodd" clip-rule="evenodd" d="M21.9865 5.5C21.9865 7.433 20.42 9 18.4876 9C17.3867 9 16.4046 8.49142 15.7632 7.69632C15.7407 7.71078 15.7172 7.72417 15.6927 7.73641L8.95726 11.1052C8.93302 11.1174 8.90842 11.128 8.88359 11.1373C8.95351 11.4133 8.99067 11.7023 8.99067 12C8.99067 12.2977 8.95351 12.5867 8.88358 12.8627C8.90842 12.872 8.93301 12.8826 8.95726 12.8948L15.6927 16.2636C15.7172 16.2758 15.7407 16.2892 15.7632 16.3037C16.4046 15.5086 17.3867 15 18.4876 15C20.42 15 21.9865 16.567 21.9865 18.5C21.9865 20.433 20.42 22 18.4876 22C16.5552 22 14.9887 20.433 14.9887 18.5C14.9887 18.2023 15.0259 17.9133 15.0958 17.6373C15.071 17.6281 15.0464 17.6174 15.0221 17.6052L8.28666 14.2364C8.26219 14.2242 8.23868 14.2108 8.21617 14.1963C7.57479 14.9914 6.59266 15.5 5.49179 15.5C3.55942 15.5 1.99292 13.933 1.99292 12C1.99292 10.067 3.55942 8.5 5.49179 8.5C6.59267 8.5 7.57479 9.00858 8.21617 9.80368C8.23869 9.78923 8.26219 9.77583 8.28666 9.76359L15.0221 6.39477C15.0464 6.38264 15.071 6.37196 15.0958 6.36267C15.0259 6.08672 14.9887 5.7977 14.9887 5.5C14.9887 3.567 16.5552 2 18.4876 2C20.42 2 21.9865 3.567 21.9865 5.5Z" fill="#FAF2FF"/>
</svg>
