<svg width="44" height="44" viewBox="0 0 44 44" fill="none" xmlns="http://www.w3.org/2000/svg">
<path d="M29.1118 19.408C30.8982 19.408 32.3464 17.9598 32.3464 16.1733C32.3464 14.3869 30.8982 12.9387 29.1118 12.9387C27.3254 12.9387 25.8772 14.3869 25.8772 16.1733C25.8772 17.9598 27.3254 19.408 29.1118 19.408Z" fill="#27B3D2"/>
<path d="M14.0168 19.408C15.8033 19.408 17.2515 17.9598 17.2515 16.1733C17.2515 14.3869 15.8033 12.9387 14.0168 12.9387C12.2304 12.9387 10.7822 14.3869 10.7822 16.1733C10.7822 17.9598 12.2304 19.408 14.0168 19.408Z" fill="#27B3D2"/>
<path d="M21.5641 25.8769C16.5397 25.8769 12.2484 29.0037 10.5233 33.4244H14.1245C15.6124 30.8583 18.3726 29.1116 21.5641 29.1116C24.7556 29.1116 27.4943 30.8583 29.0037 33.4244H32.605C30.8798 29.0037 26.5886 25.8769 21.5641 25.8769ZM21.5426 0C9.63916 0 0 9.66073 0 21.5641C0 33.4675 9.63916 43.1282 21.5426 43.1282C33.4675 43.1282 43.1282 33.4675 43.1282 21.5641C43.1282 9.66073 33.4675 0 21.5426 0ZM21.5641 38.8154C12.0328 38.8154 4.31282 31.0955 4.31282 21.5641C4.31282 12.0328 12.0328 4.31282 21.5641 4.31282C31.0955 4.31282 38.8154 12.0328 38.8154 21.5641C38.8154 31.0955 31.0955 38.8154 21.5641 38.8154Z" fill="#27B3D2"/>
</svg>
